P2
64 64
255
0 0 0 0 75 170 244 249 224 225 225 225 226 227 228 229 230 231 232 233 233 234 234 235 236 237 238 238 238 238 238 238 238 238 238 238 238 238 238 238 238 238 238 238 237 236 235 235 234 234 233 233 233 232 232 231 255 250 173 77 0 0 0 0 
0 0 0 74 227 245 179 85 5 3 3 4 6 7 6 6 6 6 5 5 4 4 4 4 4 4 3 2 2 2 2 2 2 2 2 2 2 2 2 2 2 2 2 3 4 4 4 4 3 3 4 4 3 4 6 7 87 184 251 233 76 0 0 0 
0 0 73 224 233 86 6 3 2 2 2 1 1 2 2 2 2 2 2 2 2 1 1 2 1 1 2 1 1 1 1 1 1 1 1 1 1 1 1 1 1 1 1 1 1 1 2 1 0 1 2 1 1 2 3 2 3 7 89 239 229 75 0 0 
0 73 223 231 87 6 1 1 2 1 2 2 2 2 2 2 2 2 2 2 2 1 1 1 1 2 2 1 0 0 0 0 0 0 0 0 0 0 0 0 0 1 1 1 2 1 1 1 1 2 1 1 2 2 2 1 2 2 7 90 237 228 75 0 
0 160 237 87 6 3 2 1 1 1 1 2 3 4 8 10 12 12 12 12 12 11 11 10 10 11 11 10 11 11 11 11 11 11 11 11 11 11 11 11 11 10 10 10 11 11 11 11 9 6 3 2 2 1 1 2 3 2 2 8 90 243 164 0 
70 228 177 15 1 2 3 3 2 1 2 9 13 9 3 8 9 9 8 8 7 6 5 5 5 4 4 3 2 2 2 2 2 2 2 2 2 2 2 2 2 2 3 4 4 4 5 5 3 3 12 14 9 3 2 3 2 1 2 3 16 181 234 73 
146 229 93 7 2 1 2 3 3 7 10 4 21 21 6 5 8 9 9 10 11 12 13 14 15 16 17 18 18 18 18 18 18 18 18 18 18 18 18 18 18 18 18 17 16 14 14 14 11 3 14 15 3 11 6 2 1 2 3 1 9 96 236 151 
167 220 51 1 3 2 1 2 7 7 17 19 14 48 61 63 64 63 63 63 64 64 64 64 64 64 64 64 64 64 64 64 64 64 64 64 64 64 64 64 64 64 64 64 64 64 64 65 64 63 52 20 13 12 7 7 2 3 2 1 1 54 226 173 
143 197 64 2 2 3 2 6 4 21 12 47 79 66 43 28 23 22 22 22 22 22 22 21 19 17 16 17 18 20 21 21 21 21 21 21 21 21 21 21 21 21 21 21 21 22 22 23 27 42 66 80 52 4 16 6 6 2 1 1 2 68 201 151 
101 163 61 2 1 3 3 7 19 13 60 72 21 16 23 20 19 19 19 20 20 21 18 19 55 88 102 91 55 18 20 20 20 20 20 20 20 21 22 23 23 22 20 20 20 19 19 19 20 23 16 21 73 63 6 14 8 2 2 1 2 63 162 115 
105 161 53 2 1 2 8 8 25 45 72 7 22 18 14 12 12 11 11 11 9 37 106 157 167 158 153 158 168 142 65 8 11 10 10 11 9 38 78 98 86 50 14 12 11 11 11 12 12 14 18 22 7 72 49 18 4 8 2 2 2 55 160 119 
126 183 50 2 2 2 10 30 6 78 22 22 17 11 8 7 6 5 5 5 69 158 169 105 27 28 45 25 45 144 173 79 5 4 3 41 119 168 169 161 166 172 138 62 7 5 5 6 7 8 11 17 22 22 79 12 23 11 2 2 2 52 183 138 
138 195 50 2 2 2 6 36 36 72 15 18 12 7 3 2 1 1 1 66 171 137 3 82 100 93 88 91 95 32 125 169 58 5 62 158 168 90 13 20 2 68 156 174 93 18 2 1 2 3 7 12 18 15 72 41 29 8 2 2 2 52 197 148 
143 199 50 2 1 2 2 30 48 57 25 14 9 4 1 0 0 1 25 147 150 24 95 69 41 25 21 29 55 91 20 157 134 62 166 143 8 79 90 86 90 91 27 111 178 98 14 1 0 1 4 9 14 25 57 52 23 1 3 3 2 51 200 151 
142 199 50 2 1 3 6 25 49 49 23 14 7 2 1 0 0 2 70 175 50 94 55 26 23 22 22 23 25 52 86 70 154 142 145 14 85 62 37 29 35 60 95 54 105 177 73 1 0 1 2 7 14 23 49 52 19 3 3 3 2 51 199 151 
142 198 50 3 2 3 7 25 47 47 22 13 7 1 0 0 0 3 109 162 21 87 27 23 21 17 18 21 23 28 74 11 98 113 13 81 52 32 31 31 31 31 52 95 36 151 148 22 1 0 1 7 13 22 47 50 19 5 3 3 2 51 198 150 
141 197 49 3 2 3 7 26 46 46 21 12 7 1 0 0 0 3 123 153 42 78 22 22 17 8 10 19 23 24 46 62 40 29 65 53 32 31 29 27 27 30 31 61 96 62 177 64 2 0 1 7 12 21 46 49 20 5 3 3 2 51 198 149 
141 197 49 2 1 4 8 27 46 46 21 12 7 1 0 0 0 3 113 156 32 81 22 22 18 10 12 20 23 24 27 79 42 71 60 31 31 29 25 18 19 27 30 37 97 5 173 97 3 0 1 7 12 21 46 48 21 6 4 3 2 51 197 148 
141 196 49 2 2 4 8 28 45 46 21 12 7 1 1 1 2 3 84 169 7 90 27 23 21 19 20 22 23 25 32 77 13 71 34 28 31 29 23 8 13 25 29 31 96 17 171 104 3 0 1 7 12 21 46 48 23 7 3 3 3 51 196 147 
139 195 50 2 1 3 8 29 45 47 21 12 8 2 13 39 62 70 41 153 65 87 42 23 24 23 24 41 67 84 86 75 34 68 57 47 35 29 27 21 22 28 30 42 98 24 177 79 2 0 1 7 12 21 47 47 25 7 3 1 2 51 195 146 
137 193 51 3 2 3 9 30 45 47 21 13 21 88 151 174 170 163 152 133 89 75 61 24 24 31 65 92 63 3 64 111 115 60 17 75 78 46 30 29 29 30 31 65 80 100 168 38 1 0 1 7 12 21 47 47 26 7 3 1 2 53 193 144 
136 192 50 5 5 3 10 30 45 47 22 32 127 177 138 66 14 10 18 30 54 27 73 36 30 69 68 18 111 155 164 163 163 163 138 55 57 89 49 30 31 29 45 87 10 169 114 7 0 0 1 7 12 21 47 46 26 7 3 6 6 51 191 144 
136 191 48 4 6 5 12 31 44 46 16 118 164 52 72 116 114 106 100 98 102 68 33 62 60 40 78 159 140 85 43 22 28 62 118 161 100 41 82 41 28 39 71 23 139 156 42 2 1 0 1 7 12 21 47 46 28 10 6 6 4 49 190 144 
137 191 47 3 1 4 14 34 43 43 59 166 55 98 101 61 35 25 25 24 44 90 56 30 32 90 161 98 36 20 23 24 24 21 27 79 157 104 42 62 44 72 62 56 110 104 117 86 45 11 3 7 12 21 46 44 30 12 5 2 1 48 190 143 
137 191 47 2 1 5 12 36 42 50 117 139 63 105 44 28 30 30 31 30 27 49 87 59 80 162 95 28 22 25 25 25 25 25 24 24 79 163 70 54 74 58 14 53 85 125 144 166 171 129 52 4 13 23 47 45 32 11 4 2 2 48 189 143 
137 191 48 2 0 6 11 36 44 74 147 83 113 72 28 30 28 27 29 31 30 23 78 57 138 134 33 23 25 25 24 23 24 25 25 24 28 117 151 30 29 81 99 84 82 83 67 22 64 159 168 67 14 26 49 47 32 10 4 1 3 48 189 142 
137 191 48 2 0 6 11 36 45 96 155 41 123 56 32 30 20 12 23 30 30 25 96 3 156 78 20 25 25 23 21 19 20 22 24 25 22 59 169 76 107 98 85 75 73 80 95 113 114 32 143 167 41 26 50 49 33 10 5 1 2 48 188 142 
137 191 48 2 0 6 11 36 45 104 157 27 122 50 35 34 24 15 24 31 30 35 109 51 165 38 23 25 24 21 15 11 14 19 23 25 24 25 159 79 106 39 10 13 14 12 12 27 69 126 20 177 110 24 51 49 34 11 5 1 2 48 188 141 
137 191 47 2 1 5 11 35 45 95 158 47 120 55 32 34 31 30 34 36 33 42 111 79 169 20 25 26 24 19 11 1 9 17 23 25 25 16 153 91 102 49 14 17 17 18 20 21 26 94 117 115 162 15 50 48 35 11 5 1 3 48 187 141 
137 191 47 3 1 4 11 34 46 71 153 99 111 78 30 33 32 32 33 34 32 32 109 73 178 32 26 28 26 21 14 9 13 19 24 27 27 22 164 89 113 52 20 23 22 22 24 26 23 59 136 52 175 20 49 48 35 11 5 1 3 47 187 141 
137 191 48 3 1 4 11 34 48 51 113 162 39 115 57 32 30 31 31 28 21 14 104 34 178 61 24 28 28 24 21 19 20 24 27 29 26 43 178 50 128 41 25 24 19 11 17 24 25 46 136 21 173 32 48 48 36 11 6 1 2 47 187 141 
138 191 48 3 1 4 11 33 49 48 45 173 112 64 118 95 72 57 49 49 57 75 99 46 173 109 22 27 28 26 25 25 25 26 28 27 21 94 168 23 116 24 26 24 18 7 16 23 24 50 137 29 173 29 48 48 36 11 6 0 2 48 187 140 
138 191 48 3 3 4 10 32 49 50 19 88 184 139 21 64 100 110 110 102 86 62 26 18 118 166 56 22 27 28 27 26 27 27 27 23 50 159 96 92 70 18 26 26 23 20 23 25 22 72 138 73 173 15 49 48 36 11 6 0 2 48 187 140 
139 192 48 2 1 4 10 31 49 51 25 11 83 168 185 125 39 35 13 22 42 66 79 78 7 153 147 53 21 25 27 28 27 25 21 47 137 177 42 109 27 14 23 26 26 25 25 23 34 112 103 138 152 20 50 48 35 11 5 1 2 47 187 140 
140 192 48 2 1 4 9 31 50 51 24 13 5 32 94 157 63 90 102 103 94 71 45 54 74 22 156 162 95 44 21 19 18 34 82 154 174 96 70 108 70 41 22 20 23 22 23 43 97 136 14 187 92 27 51 48 34 11 4 1 3 49 188 138 
142 193 49 3 2 4 9 30 50 51 24 13 7 13 143 174 21 90 49 38 37 38 39 41 64 73 7 120 173 173 156 144 151 169 180 144 53 29 22 82 48 52 94 95 90 97 115 136 127 13 161 154 24 25 51 49 34 12 5 2 4 64 190 126 
143 194 49 3 2 4 9 29 50 51 24 13 9 51 188 87 96 67 37 38 38 38 39 39 42 56 68 34 64 127 143 144 140 116 58 17 44 40 31 85 88 76 47 15 56 73 65 18 75 165 165 57 12 22 43 45 28 10 7 24 42 96 178 99 
145 195 49 2 2 4 8 28 51 51 24 13 10 93 190 12 108 46 38 36 32 31 36 39 40 36 35 68 35 39 32 24 37 58 65 49 27 24 48 48 148 86 160 154 140 141 149 169 192 162 81 28 22 25 25 35 9 21 32 61 77 88 139 83 
147 196 49 2 2 4 8 26 51 51 24 13 10 112 186 21 108 39 38 33 20 14 31 38 39 36 46 73 8 41 27 36 40 35 26 21 21 21 44 30 160 158 20 72 100 105 117 129 104 57 34 23 17 12 27 39 11 47 76 76 47 24 118 91 
147 196 50 2 2 3 7 25 52 51 24 13 10 97 189 7 111 51 38 33 22 20 32 38 39 42 76 66 25 41 17 21 21 21 21 21 22 21 33 65 107 187 37 21 26 19 66 64 26 16 34 31 15 15 37 10 51 93 87 40 21 34 129 106 
147 197 50 2 2 3 6 24 52 51 24 13 9 57 189 86 102 82 43 37 33 33 36 38 43 74 71 32 27 44 19 22 21 20 18 18 20 22 25 71 59 186 58 29 27 82 58 3 33 35 30 14 16 37 10 51 93 90 42 21 56 36 147 119 
146 198 50 3 2 3 5 23 53 51 24 13 8 15 144 178 14 113 75 44 37 38 37 44 77 90 37 94 54 53 22 21 21 18 12 9 17 21 21 72 35 175 59 10 87 58 11 34 34 30 15 15 37 10 50 93 91 43 22 56 55 32 162 130 
145 199 51 3 2 3 5 22 55 51 24 14 8 4 59 182 146 33 114 92 62 50 63 92 95 19 177 129 136 40 38 20 21 18 9 7 16 21 27 75 44 156 58 73 77 7 35 34 30 15 15 37 12 49 93 92 43 22 56 54 45 32 174 138 
145 200 51 3 2 3 3 21 56 53 25 14 8 4 5 78 186 157 12 90 113 110 109 68 52 176 161 101 185 23 62 28 21 20 17 16 19 23 48 70 89 137 79 97 17 35 35 30 15 15 37 12 49 93 93 44 23 56 54 44 39 35 185 146 
146 200 51 3 2 3 1 25 56 62 27 16 9 5 3 7 71 170 191 128 60 34 72 146 193 143 45 51 182 121 47 57 30 21 20 20 30 52 75 3 146 107 84 76 28 35 30 15 15 37 13 48 94 94 46 22 56 54 44 38 35 38 196 153 
146 201 51 3 2 3 9 32 44 78 16 20 13 7 4 3 2 40 116 175 188 185 188 164 94 24 3 7 118 191 65 56 70 59 58 67 80 73 6 141 139 51 81 43 37 29 16 14 37 13 47 93 95 46 22 57 54 44 38 33 30 41 204 157 
146 203 51 3 2 3 13 26 12 86 24 24 18 12 8 7 6 7 5 22 53 65 47 16 6 6 5 6 33 147 184 90 15 64 70 48 11 94 176 164 42 19 83 22 31 16 12 37 14 47 93 96 48 22 57 55 45 37 33 28 22 47 209 159 
146 204 53 3 2 3 9 4 20 54 78 7 23 20 15 14 12 12 11 12 13 14 13 12 11 11 11 11 12 36 127 181 173 155 150 160 177 177 130 36 58 27 82 19 18 12 36 15 46 93 96 49 21 57 55 45 37 33 29 21 12 51 211 160 
143 207 59 3 2 3 3 10 16 7 68 78 24 17 26 24 22 21 20 21 21 21 21 21 21 21 21 21 21 22 17 59 116 150 153 131 89 38 15 34 65 30 82 16 11 36 15 45 93 97 49 21 57 55 45 38 33 28 21 11 5 56 213 159 
129 213 77 3 2 3 2 7 6 17 6 54 85 72 46 30 25 24 24 23 23 23 23 23 23 23 23 23 23 23 22 20 18 17 17 17 18 21 23 33 65 19 77 32 36 16 44 92 98 51 20 57 55 45 38 33 28 21 11 3 4 74 217 145 
98 221 114 4 3 2 1 2 8 9 12 14 20 56 69 70 70 69 69 69 69 69 69 69 69 69 69 69 69 69 69 69 69 69 69 69 69 69 69 72 91 43 76 53 16 44 93 98 52 19 57 55 45 37 33 29 21 12 3 0 5 114 225 112 
60 211 160 15 2 1 2 3 3 8 12 3 17 16 2 12 15 15 16 17 18 19 20 20 20 20 20 20 20 20 20 20 20 20 20 20 20 20 19 35 76 22 75 33 43 93 100 52 19 57 55 45 38 33 29 22 12 3 0 1 13 163 218 70 
33 167 189 62 1 1 3 2 1 1 3 11 16 12 3 4 6 5 5 4 4 3 3 2 2 2 2 2 2 2 2 2 2 2 2 2 2 3 6 32 77 3 66 33 93 100 54 19 57 55 45 39 34 29 22 12 3 0 0 2 60 197 172 39 
20 117 176 119 32 3 3 1 1 2 2 2 2 4 8 11 11 11 12 12 11 12 12 12 12 12 12 12 12 12 12 12 12 12 12 12 11 11 11 33 77 6 47 75 100 55 18 57 55 45 39 34 29 21 12 4 0 0 1 25 122 189 114 26 
8 97 134 126 117 42 2 2 3 3 1 1 2 2 1 1 1 2 2 1 1 2 1 0 0 0 0 0 0 0 0 0 0 0 0 0 1 1 6 33 75 27 40 86 57 16 58 55 46 39 33 29 21 12 4 0 0 2 34 108 135 146 88 12 
15 90 112 72 149 156 63 10 3 1 2 2 3 2 1 2 2 2 1 2 1 2 1 0 0 0 0 0 0 0 0 0 0 0 0 0 1 1 7 33 68 52 57 54 15 59 59 46 38 33 29 22 12 3 1 2 5 58 151 148 80 121 81 15 
8 59 113 41 64 167 162 101 55 20 4 4 7 8 10 10 8 7 7 7 7 7 6 6 6 6 6 6 6 6 6 6 6 6 6 6 6 6 10 35 71 86 56 14 64 71 60 45 37 33 27 18 11 8 13 45 97 171 172 71 47 119 55 9 
7 22 92 76 27 66 121 137 162 178 170 151 136 119 97 95 115 129 134 134 135 135 135 135 135 135 135 135 135 135 135 135 135 135 135 135 135 135 133 128 122 94 27 33 48 55 37 55 87 109 124 135 149 167 175 159 145 136 58 37 84 95 21 9 
5 6 36 77 58 44 47 39 106 163 190 194 191 186 179 178 184 187 188 188 188 188 188 187 187 187 187 186 186 186 186 186 186 186 187 187 187 187 185 173 137 88 63 79 104 128 137 151 161 173 185 192 197 198 172 113 46 57 29 58 84 38 7 7 
0 6 6 25 66 86 60 17 63 31 23 42 53 67 84 86 68 51 46 45 45 45 44 44 44 44 43 43 43 43 43 43 43 43 43 44 44 44 43 43 43 46 49 50 57 77 89 81 60 49 48 49 41 23 35 65 6 64 77 65 27 7 8 0 
0 4 7 4 23 82 110 71 49 32 8 10 16 10 7 6 3 5 7 7 6 6 6 5 6 6 6 6 6 6 6 6 6 6 6 6 6 6 6 6 6 6 7 6 4 4 7 6 5 8 12 12 6 9 35 52 72 108 75 20 5 10 6 0 
0 0 3 6 3 25 75 97 77 51 33 30 34 36 38 38 38 38 38 39 39 40 41 41 41 41 42 42 43 43 43 43 42 42 42 42 41 41 41 40 40 39 39 38 38 38 38 38 37 35 33 30 28 33 52 79 97 72 23 4 7 4 0 0 
0 0 0 3 4 2 7 28 48 52 46 46 51 56 58 59 60 60 61 61 62 62 63 63 63 64 64 64 64 64 64 64 64 64 64 64 64 63 63 62 62 62 61 61 60 60 59 59 58 56 53 47 44 46 52 48 28 8 2 5 3 0 0 0 
0 0 0 0 0 1 75 170 219 219 216 215 216 216 217 217 218 218 219 219 220 221 221 222 222 223 223 223 223 223 223 223 223 223 223 223 223 223 223 223 223 223 223 223 223 223 223 222 222 222 222 222 222 222 224 223 173 76 2 0 0 0 0 0 
